<mxfile host="app.diagrams.net" modified="2022-03-29T15:14:35.756Z" agent="5.0 (Windows NT 10.0; Win64; x64) AppleWebKit/537.36 (KHTML, like Gecko) Chrome/99.0.4844.82 Safari/537.36" etag="BNUkPEFRtw_B7Xdr9wZ1" version="17.2.4" type="github">
  <diagram id="cj5vI909HJhT3GwVRH1A" name="Page-1">
    <mxGraphModel dx="955" dy="972" grid="1" gridSize="10" guides="1" tooltips="1" connect="1" arrows="1" fold="1" page="1" pageScale="1" pageWidth="827" pageHeight="1169" math="0" shadow="0">
      <root>
        <mxCell id="0" />
        <mxCell id="1" parent="0" />
        <mxCell id="p-VjMWj_V00hi-s87E7W-1" value="НАЧАЛО" style="ellipse;whiteSpace=wrap;html=1;" vertex="1" parent="1">
          <mxGeometry x="128.5" y="80" width="100" height="60" as="geometry" />
        </mxCell>
        <mxCell id="p-VjMWj_V00hi-s87E7W-2" style="edgeStyle=none;rounded=0;orthogonalLoop=1;jettySize=auto;html=1;exitX=0.5;exitY=1;exitDx=0;exitDy=0;" edge="1" parent="1">
          <mxGeometry relative="1" as="geometry">
            <mxPoint x="178.5" y="670" as="sourcePoint" />
            <mxPoint x="178.5" y="670" as="targetPoint" />
          </mxGeometry>
        </mxCell>
        <mxCell id="p-VjMWj_V00hi-s87E7W-3" value="ВЫХОД" style="ellipse;whiteSpace=wrap;html=1;" vertex="1" parent="1">
          <mxGeometry x="116.25" y="570" width="120" height="60" as="geometry" />
        </mxCell>
        <mxCell id="p-VjMWj_V00hi-s87E7W-4" value="Вариант 8&lt;br&gt;3. Вычислить значение функции sin(3x) &lt;br&gt;на интервале от [-4, 4] c шагом h = 0.1" style="strokeWidth=2;html=1;shape=mxgraph.flowchart.annotation_2;align=left;labelPosition=right;pointerEvents=1;" vertex="1" parent="1">
          <mxGeometry x="330" y="70" width="50" height="80" as="geometry" />
        </mxCell>
        <mxCell id="p-VjMWj_V00hi-s87E7W-5" value="" style="endArrow=none;dashed=1;html=1;dashPattern=1 3;strokeWidth=2;rounded=0;exitX=1;exitY=0.5;exitDx=0;exitDy=0;entryX=0.52;entryY=0.512;entryDx=0;entryDy=0;entryPerimeter=0;" edge="1" parent="1" source="p-VjMWj_V00hi-s87E7W-1" target="p-VjMWj_V00hi-s87E7W-4">
          <mxGeometry width="50" height="50" relative="1" as="geometry">
            <mxPoint x="312" y="240" as="sourcePoint" />
            <mxPoint x="362" y="190" as="targetPoint" />
          </mxGeometry>
        </mxCell>
        <mxCell id="p-VjMWj_V00hi-s87E7W-6" value="для x от -4 до 4 с шагом 0,1&lt;br&gt;&lt;br&gt;&amp;nbsp; &amp;nbsp; S=&lt;span style=&quot;font-size: 12px&quot;&gt;sin(3x)&lt;/span&gt;&lt;br&gt;&lt;br&gt;&amp;nbsp; &amp;nbsp; вывод Х, S" style="strokeWidth=2;html=1;shape=mxgraph.flowchart.annotation_2;align=left;labelPosition=right;pointerEvents=1;verticalAlign=top;fontSize=14;spacing=2;spacingBottom=0;spacingLeft=0;spacingTop=0;horizontal=1;" vertex="1" parent="1">
          <mxGeometry x="360" y="220" width="50" height="100" as="geometry" />
        </mxCell>
        <mxCell id="p-VjMWj_V00hi-s87E7W-7" value="" style="endArrow=none;dashed=1;html=1;dashPattern=1 3;strokeWidth=2;rounded=0;exitX=1;exitY=0.5;exitDx=0;exitDy=0;entryX=0.52;entryY=0.512;entryDx=0;entryDy=0;entryPerimeter=0;" edge="1" parent="1" source="p-VjMWj_V00hi-s87E7W-1" target="p-VjMWj_V00hi-s87E7W-6">
          <mxGeometry width="50" height="50" relative="1" as="geometry">
            <mxPoint x="549.5" y="195" as="sourcePoint" />
            <mxPoint x="682" y="255" as="targetPoint" />
          </mxGeometry>
        </mxCell>
        <mxCell id="p-VjMWj_V00hi-s87E7W-8" value="" style="endArrow=classic;html=1;rounded=0;exitX=0.5;exitY=1;exitDx=0;exitDy=0;entryX=0.5;entryY=0;entryDx=0;entryDy=0;" edge="1" parent="1" source="p-VjMWj_V00hi-s87E7W-1" target="p-VjMWj_V00hi-s87E7W-12">
          <mxGeometry width="50" height="50" relative="1" as="geometry">
            <mxPoint x="178.5" y="220" as="sourcePoint" />
            <mxPoint x="178.125" y="280" as="targetPoint" />
          </mxGeometry>
        </mxCell>
        <mxCell id="p-VjMWj_V00hi-s87E7W-9" value="" style="edgeStyle=orthogonalEdgeStyle;rounded=0;orthogonalLoop=1;jettySize=auto;html=1;" edge="1" parent="1" source="p-VjMWj_V00hi-s87E7W-10" target="p-VjMWj_V00hi-s87E7W-13">
          <mxGeometry relative="1" as="geometry" />
        </mxCell>
        <mxCell id="p-VjMWj_V00hi-s87E7W-10" value="&lt;div style=&quot;text-align: left&quot;&gt;&lt;span&gt;S=&lt;/span&gt;&lt;span&gt;sin(3x)&lt;/span&gt;&lt;/div&gt;" style="whiteSpace=wrap;html=1;" vertex="1" parent="1">
          <mxGeometry x="125.75" y="340" width="101" height="40" as="geometry" />
        </mxCell>
        <mxCell id="p-VjMWj_V00hi-s87E7W-11" value="" style="edgeStyle=orthogonalEdgeStyle;rounded=0;orthogonalLoop=1;jettySize=auto;html=1;" edge="1" parent="1" source="p-VjMWj_V00hi-s87E7W-12">
          <mxGeometry relative="1" as="geometry">
            <mxPoint x="178" y="340" as="targetPoint" />
          </mxGeometry>
        </mxCell>
        <mxCell id="p-VjMWj_V00hi-s87E7W-12" value="x=-4,4; h=0.1" style="shape=hexagon;perimeter=hexagonPerimeter2;whiteSpace=wrap;html=1;fixedSize=1;size=17;" vertex="1" parent="1">
          <mxGeometry x="123" y="260" width="110" height="50" as="geometry" />
        </mxCell>
        <mxCell id="p-VjMWj_V00hi-s87E7W-13" value="X, S" style="shape=parallelogram;perimeter=parallelogramPerimeter;whiteSpace=wrap;html=1;fixedSize=1;" vertex="1" parent="1">
          <mxGeometry x="119.75" y="420" width="113" height="40" as="geometry" />
        </mxCell>
        <mxCell id="p-VjMWj_V00hi-s87E7W-14" value="" style="endArrow=classic;html=1;rounded=0;exitX=0.5;exitY=1;exitDx=0;exitDy=0;entryX=0;entryY=0.5;entryDx=0;entryDy=0;" edge="1" parent="1" source="p-VjMWj_V00hi-s87E7W-13" target="p-VjMWj_V00hi-s87E7W-12">
          <mxGeometry width="50" height="50" relative="1" as="geometry">
            <mxPoint x="360" y="550" as="sourcePoint" />
            <mxPoint x="410" y="500" as="targetPoint" />
            <Array as="points">
              <mxPoint x="177" y="500" />
              <mxPoint x="80" y="500" />
              <mxPoint x="80" y="285" />
            </Array>
          </mxGeometry>
        </mxCell>
        <mxCell id="p-VjMWj_V00hi-s87E7W-15" value="" style="endArrow=classic;html=1;rounded=0;exitX=1;exitY=0.5;exitDx=0;exitDy=0;" edge="1" parent="1" source="p-VjMWj_V00hi-s87E7W-12">
          <mxGeometry width="50" height="50" relative="1" as="geometry">
            <mxPoint x="260" y="550" as="sourcePoint" />
            <mxPoint x="178" y="570" as="targetPoint" />
            <Array as="points">
              <mxPoint x="280" y="285" />
              <mxPoint x="280" y="520" />
              <mxPoint x="178" y="520" />
            </Array>
          </mxGeometry>
        </mxCell>
      </root>
    </mxGraphModel>
  </diagram>
</mxfile>
